# xmcd
#
# Track frame offsets:
#       150
#       19885
#       41730
#       54472
#       74795
#       86840
#       116700
#       129005
#       150335
#       165997
#       182157
#       201302
#       224625
#       244690
#       265048
#       275608
#
# Disc length: 3826 seconds
#
# Revision: 1
# Processed by: cddbd v1.4PL0 Copyright (c) Steve Scherf et al.
# Submitted via: MusiCat 1.1
#
DISCID=ea0ef010
DTITLE=Rufus Wainwright - Want One
DYEAR=2003
DGENRE=
TTITLE0=Oh What A World
TTITLE1=I don't Know What It Is
TTITLE2=Vicious Wor;d
TTITLE3=Movies Of Myself
TTITLE4=Pretty Things
TTITLE5=Go Or Go Ahead
TTITLE6=Vibrate
TTITLE7=14th Street
TTITLE8=Natasha
TTITLE9=Harvester Of Hearts
TTITLE10=Beautiful Child
TTITLE11=Want
TTITLE12=11:11
TTITLE13=Dinner At Eight
TTITLE14=Eis Mus Sein
TTITLE15=Velvet Curtain Rag
EXTD=\n\n
EXTT0=
EXTT1=
EXTT2=
EXTT3=
EXTT4=
EXTT5=
EXTT6=
EXTT7=
EXTT8=
EXTT9=
EXTT10=
EXTT11=
EXTT12=
EXTT13=
EXTT14=
EXTT15=
PLAYORDER=
